<?xml version="1.0" encoding="utf-8"?>
<!-- Generator: Adobe Illustrator 26.0.2, SVG Export Plug-In . SVG Version: 6.00 Build 0)  -->
<svg version="1.1" id="Telia_Wholesale" xmlns="http://www.w3.org/2000/svg" xmlns:xlink="http://www.w3.org/1999/xlink" x="0px"
	 y="0px" viewBox="0 0 1280.8 215.7" style="enable-background:new 0 0 1280.8 215.7;" xml:space="preserve">
<style type="text/css">
	.st0{fill:#FFFFFF;}
	.st1{enable-background:new    ;}
</style>
<g id="Symbol">
	<path class="st0" d="M141.2,151.6c28-16.2,53.2-43.7,61.1-63.3c2.3-16.2,2.7-18.3,3-36.2c0-2.5-0.1-4.8-0.3-7.1
		c-1.6,26.2-35.5,59.2-80.4,80.8c-54.1,26-94.7,33-112.8,13.2c6.3,12.4,10.4,18.5,17.5,27.7C50.1,185.1,94.1,178.9,141.2,151.6z"/>
	<path class="st0" d="M118.3,107.1c51-24.6,86.6-59.6,80.4-82.9C188.5,6.7,167.9,0,145.8,0C80.3,0,0,43.1,0,98.2
		c0,7.1,1.6,15,4.4,23.3C19.3,141.3,64.9,132.9,118.3,107.1z"/>
	<path class="st0" d="M114,185.1L114,185.1c-35.9,14.6-56.4,9.9-67.8,0.8l-0.2-0.1c17.6,17.5,37.6,29.9,55.2,29.9
		c30.8,0,72.9-37.3,92.8-95.2C182.7,141.4,158.6,167.1,114,185.1z"/>
</g>
<g id="Wordmark">
	<path class="st0" d="M327.3,76.2H294V170h-21.1V76.2h-33.6V57.9h88V76.2z"/>
	<path class="st0" d="M390.7,135.5h-59c2.1,11.8,10.6,19.7,21.4,19.7c8.2,0,14.7-3.7,18.7-9.8l15.7,9.4c-8,10.7-21.1,17.1-34.4,17.1
		c-21.9,0-41-17.4-41-42.4s18.9-42.2,40-42.2C379.8,87.4,393.4,109.4,390.7,135.5z M332.3,120.6h39.4c-2.4-10.4-9.1-17-19.5-17
		C342.3,103.7,335,110.4,332.3,120.6z"/>
	<path class="st0" d="M432.6,170.2c-3,0.6-6.2,0.8-9.1,0.8c-14.1,0-20.3-6.7-20.3-20.3V57.9h19.7V148c0,6.9,4.2,7.8,9.8,7.2v15
		H432.6z"/>
	<path class="st0" d="M442.8,67.2c0-6.2,5.4-11.4,11.7-11.4c6.1,0,11.5,5.1,11.5,11.4s-5.4,11.4-11.5,11.4
		C448.3,78.6,442.8,73.4,442.8,67.2z M444.6,169.9v-80h19.7v80H444.6z"/>
	<path class="st0" d="M547,113.3v56.6h-18.4v-9.3c-6.2,8.2-16.2,11.2-24.5,11.2c-17.3,0-27.5-10.9-27.5-24.5
		c0-15.5,17.4-28.2,38.7-28.2c4.2,0,8.6,0.3,12.6,1.6v-5.3c0-8-4.6-12.2-14.1-12.2c-8.5,0-16,4.3-20.6,9.9L479.3,103
		c7.8-9.1,21.3-15.5,34.9-15.5C535.5,87.5,547,96.8,547,113.3z M527.9,139v-3.5c-3.2-1.1-6.6-1.4-10.7-1.4
		c-14.4,0-21.8,5.8-21.8,12.8c0,5.8,5,9.4,12.5,9.4C517.9,156.3,527.9,150.4,527.9,139z"/>
</g>
<g id="Wholesale" class="st1">
	<path class="st0" d="M716.6,57.9h13.9l-33.9,112H683l-27.7-93.4l-28.5,93.4h-13.4l-33.1-112h14.6l26.1,92.6l27.7-92.6h14.2
		l26.9,92.8L716.6,57.9z"/>
	<path class="st0" d="M807.8,114.2v55.7h-13v-52.3c0-11.5-4.2-18.4-15.2-18.4c-14.1,0-24.5,10.4-24.5,23.7v47h-13v-112h13v43.5
		c6.2-9,16.3-13.4,27-13.4C799.1,88,807.8,99.2,807.8,114.2z"/>
	<path class="st0" d="M820.7,129.9c0-24.8,17.4-42.6,40-42.6s40,17.8,40,42.6c0,24.6-17.4,42.4-40,42.4
		C838.2,172.3,820.7,154.5,820.7,129.9z M887.6,129.9c0-18.6-11.5-31.5-26.9-31.5s-26.9,13-26.9,31.5c0,18.4,11.5,31.4,26.9,31.4
		S887.6,148.3,887.6,129.9z"/>
	<path class="st0" d="M937.3,170.1c-2.1,0.5-4.8,0.8-7.2,0.8c-11.7,0-16.5-6.1-16.5-18.1V57.9h13v94.2c0,8.5,5.3,8.5,10.7,7.8V170.1
		z"/>
	<path class="st0" d="M1016.5,131.7h-61.6c1,17.6,12,29.6,26.7,29.6c9.4,0,17.6-4.5,22.9-12.2l9.8,6.4
		c-7.7,10.7-19.4,16.8-32.6,16.8c-21.9,0-39.5-17.8-39.5-42.9c0-24.6,17.4-42.1,38.4-42.1C1002.9,87.4,1018.6,105.9,1016.5,131.7z
		 M955.6,121.6h48.3c-1.8-14.4-11-23.4-23.4-23.4C967.9,98.2,958.1,107.4,955.6,121.6z"/>
	<path class="st0" d="M1022.5,154.5l9.1-6.4c5,7.8,13.9,13.4,25,13.4c10.6,0,16.8-5.6,16.8-13.3c0-7.5-6.9-10.9-15.4-13.6l-9.1-2.9
		c-15.4-5-22.1-11-22.1-22.2c0-12.8,12.6-22.2,29-22.2c11,0,22.1,4.5,28.5,11.4l-8,7.2c-5.4-5-12.5-8-20.6-8
		c-11.2,0-16.6,5.3-16.6,11.2c0,6.4,5.8,9.3,14.9,12.2l8.3,2.6c16,5,23.5,11.8,23.5,23.8c0,14.4-12.3,24.5-29.1,24.5
		C1042.6,172.1,1028.9,165.9,1022.5,154.5z"/>
	<path class="st0" d="M1161.4,111.7v58.2h-12v-11.2c-5.9,9.4-16.6,13.1-26.4,13.1c-17.8,0-27.5-11.5-27.5-23.8
		c0-16,16.3-27.8,38.7-27.8c5.1,0,10.2,0.5,14.6,1.8v-8c0-10.6-5.8-15.8-17.6-15.8c-10.1,0-18.2,4.6-23.5,11.8l-9.3-6.7
		c6.7-9.1,19.4-15.7,33-15.7C1150.7,87.5,1161.4,96.8,1161.4,111.7z M1148.7,139.7V132c-4.2-1.3-8.6-1.6-13.3-1.6
		c-16.6,0-27.5,6.7-27.5,17.1c0,8.2,6.4,13.6,17,13.6C1136.9,161.1,1148.7,153.9,1148.7,139.7z"/>
	<path class="st0" d="M1200.5,170.1c-2.1,0.5-4.8,0.8-7.2,0.8c-11.7,0-16.5-6.1-16.5-18.1V57.9h13v94.2c0,8.5,5.3,8.5,10.7,7.8
		V170.1z"/>
	<path class="st0" d="M1279.7,131.7h-61.6c1,17.6,12,29.6,26.7,29.6c9.4,0,17.6-4.5,22.9-12.2l9.8,6.4
		c-7.7,10.7-19.4,16.8-32.6,16.8c-21.9,0-39.5-17.8-39.5-42.9c0-24.6,17.4-42.1,38.4-42.1C1266.1,87.4,1281.7,105.9,1279.7,131.7z
		 M1218.7,121.6h48.3c-1.8-14.4-11-23.4-23.4-23.4C1231,98.2,1221.3,107.4,1218.7,121.6z"/>
</g>
</svg>
